<svg xmlns="http://www.w3.org/2000/svg" viewBox="0 0 576 512"><!--!Font Awesome Free 6.6.0 by @fontawesome - https://fontawesome.com License - https://fontawesome.com/license/free Copyright 2024 Fonticons, Inc.--><path d="M288 0c-69.6 0-126 56.4-126 126 0 56.3 82.4 158.8 113.9 196 6.4 7.5 17.8 7.5 24.2 0C331.7 284.8 414 182.3 414 126 414 56.4 357.6 0 288 0zm0 168c-23.2 0-42-18.8-42-42s18.8-42 42-42 42 18.8 42 42-18.8 42-42 42zM20.1 216A32 32 0 0 0 0 245.7v250.3c0 11.3 11.4 19.1 21.9 14.9L160 448V214.9c-8.8-16-16.1-31.5-21.3-46.4L20.1 216zM288 359.7c-14.1 0-27.4-6.2-36.5-17-19.7-23.2-40.6-49.6-59.5-76.7v182l192 64V266c-18.9 27.1-39.8 53.5-59.5 76.7-9.1 10.8-22.4 17-36.5 17zm266.1-198.5L416 224v288l139.9-56A32 32 0 0 0 576 426.3V176c0-11.3-11.4-19.1-21.9-14.9z"/></svg>